<?xml version="1.0" encoding="UTF-8" standalone="no"?>
<svg
   width="512"
   height="512"
   viewBox="0 0 512 512"
   version="1.1"
   id="svg1"
   sodipodi:docname="pipeline_logo.svg"
   xml:space="preserve"
   inkscape:version="1.3.2 (1:1.3.2+202311252150+091e20ef0f)"
   inkscape:export-filename="pipeline_logo.png"
   inkscape:export-xdpi="96"
   inkscape:export-ydpi="96"
   xmlns:inkscape="http://www.inkscape.org/namespaces/inkscape"
   xmlns:sodipodi="http://sodipodi.sourceforge.net/DTD/sodipodi-0.dtd"
   xmlns="http://www.w3.org/2000/svg"
   xmlns:svg="http://www.w3.org/2000/svg"><defs
     id="defs1" /><sodipodi:namedview
     id="namedview1"
     pagecolor="#505050"
     bordercolor="#ffffff"
     borderopacity="1"
     inkscape:showpageshadow="0"
     inkscape:pageopacity="0"
     inkscape:pagecheckerboard="1"
     inkscape:deskcolor="#d1d1d1"
     inkscape:zoom="1.59375"
     inkscape:cx="256"
     inkscape:cy="256"
     inkscape:window-width="1848"
     inkscape:window-height="1016"
     inkscape:window-x="1992"
     inkscape:window-y="27"
     inkscape:window-maximized="1"
     inkscape:current-layer="svg1" /><path
     d="M 267.661 30.085 C 258.001 31.392, 246.999 35.287, 236.299 41.187 C 227.342 46.126, 223 49.280, 223 50.848 C 223 51.271, 223.603 52.442, 224.339 53.449 C 225.604 55.179, 226.259 54.972, 236.089 49.730 C 249.814 42.411, 259.085 39.631, 270 39.560 C 280.623 39.491, 286.755 41.628, 290.836 46.823 C 294.351 51.295, 297.349 56.984, 296.592 57.742 C 296.286 58.047, 293.440 57.361, 290.268 56.217 C 265.626 47.326, 264.525 47.018, 257.500 47.033 C 250.873 47.047, 243.486 48.181, 242.301 49.366 C 242.003 49.663, 242.031 50.987, 242.363 52.308 C 242.907 54.477, 243.657 54.774, 250.113 55.374 C 258.650 56.167, 268.532 59.353, 281.754 65.574 C 293.328 71.020, 310.684 77.058, 312.623 76.314 C 313.381 76.024, 313.999 74.822, 313.998 73.643 C 313.996 71.629, 314.401 71.521, 320.748 71.856 C 334.729 72.593, 348.179 68.217, 348.816 62.725 C 349.017 60.997, 348.651 59.980, 347.816 59.945 C 334.808 59.399, 331.650 58.938, 326.402 56.819 C 315.353 52.356, 308.095 46.602, 299.735 35.681 C 297.934 33.329, 295.667 31.732, 293.235 31.104 C 287.282 29.567, 275.083 29.081, 267.661 30.085 M 343.824 44.877 C 340.153 47.518, 334.528 50.505, 331.324 51.514 L 325.500 53.348 328.767 54.684 C 331.337 55.735, 332.996 55.778, 336.537 54.886 C 342.395 53.411, 355.237 44.478, 354.800 42.182 C 354.217 39.121, 350.585 40.013, 343.824 44.877 M 212.500 66.646 C 200.161 68.633, 188 73.353, 188 76.155 C 188 79.102, 190.277 79.359, 199.751 77.479 C 227.726 71.928, 256.311 78.844, 282.553 97.513 C 291.588 103.941, 292.318 105.472, 284.701 102.019 C 277.364 98.692, 251.896 90.882, 238.996 88.003 C 213.219 82.250, 186.874 83.651, 164.841 91.945 C 157.858 94.574, 156.427 96.060, 158.016 99.030 C 158.861 100.610, 159.752 101.023, 161.336 100.570 C 172.062 97.507, 191.245 98.083, 206.198 101.917 C 223.103 106.253, 234.376 111.834, 258.013 127.571 C 283.568 144.584, 298.183 149.976, 315.185 148.665 C 329.189 147.585, 345 142.395, 345 138.877 C 345 137.845, 344.663 136.985, 344.250 136.966 C 336.622 136.624, 321.713 134.725, 316.835 133.475 C 308.382 131.309, 295.523 124.743, 282.321 115.853 C 269.224 107.033, 270.395 105.942, 285.998 112.427 C 292.049 114.942, 301.857 119.020, 307.793 121.488 C 323.855 128.167, 332.459 130.141, 345.500 130.141 C 362.228 130.141, 372.326 127.089, 386.716 117.684 C 393.586 113.193, 394.819 111.390, 392.561 109.132 C 391.210 107.782, 390.321 107.854, 384.274 109.802 C 372.887 113.472, 367.090 114.308, 357.507 113.665 C 339.906 112.483, 325.330 107.120, 303.984 93.969 C 281.865 80.342, 263.689 72.695, 243.500 68.523 C 235.325 66.833, 217.893 65.778, 212.500 66.646 M 178.500 128.479 C 177.950 128.655, 174.125 129.574, 170 130.521 C 165.875 131.468, 158.675 133.901, 154 135.928 C 139.061 142.406, 82 177.552, 82 180.275 C 82 181.014, 82.591 182.426, 83.314 183.415 C 84.540 185.092, 85.380 185.128, 95.933 183.963 C 122.632 181.015, 146.237 185.455, 174 198.648 C 189.124 205.835, 197.048 210.500, 224 228.085 C 253.299 247.202, 265.733 253.354, 282.500 257.034 C 289.921 258.662, 306.862 258.368, 314.719 256.475 C 325.407 253.899, 342.188 245.162, 353 236.542 C 372.243 221.200, 381.678 214.404, 389 210.609 C 398.959 205.449, 400.232 204.303, 398.861 201.739 C 397.853 199.857, 397.082 199.766, 386.643 200.288 C 374.592 200.892, 366.130 202.907, 354 208.061 C 321.724 221.777, 314.821 223.585, 298.046 222.720 C 281.286 221.855, 273.908 219.198, 236.500 200.559 C 194.058 179.411, 177.046 173.685, 148.296 170.873 C 134.613 169.535, 120.427 170.678, 109.845 173.971 C 97.895 177.690, 106.087 172.637, 121 167.090 C 143.828 158.600, 166.085 157.962, 190.242 165.106 C 205.416 169.594, 216.983 175.500, 239.016 190.010 C 264.717 206.936, 276.840 212.555, 293.142 215.095 C 309.132 217.586, 320.962 214.990, 344.150 203.900 C 354.325 199.034, 363.464 195.373, 367.650 194.486 C 376.563 192.598, 391.103 192.619, 402.938 194.539 C 408.130 195.381, 412.967 195.843, 413.688 195.566 C 414.410 195.289, 415 193.918, 415 192.519 C 415 190.541, 413.823 189.222, 409.707 186.589 C 406.795 184.727, 403.815 182.482, 403.084 181.601 C 401.949 180.233, 402.018 180, 403.562 180 C 404.556 180, 407.969 180.730, 411.147 181.621 C 417.653 183.447, 420 183.016, 420 179.996 C 420 177.626, 414.805 175.049, 404.702 172.409 C 395.944 170.121, 373.474 170.932, 363 173.915 C 335.055 181.873, 315.986 182.111, 294.500 174.770 C 284.376 171.310, 275.967 166.593, 256.348 153.368 C 226.328 133.132, 212.897 127.930, 191.060 128.079 C 184.702 128.122, 179.050 128.302, 178.500 128.479 M 200.606 136.828 C 199.789 138.150, 201.305 139.192, 210.906 143.912 C 222.226 149.477, 228.122 153.099, 251 168.541 C 273.010 183.397, 280.552 187.792, 290.409 191.502 C 305.167 197.057, 319.033 198.348, 332.303 195.402 C 339.225 193.866, 361.469 185.136, 360.621 184.288 C 360.395 184.061, 356.900 184.552, 352.855 185.377 C 340.780 187.842, 325.159 189.184, 317.078 188.450 C 305.566 187.405, 291.972 183.604, 281.726 178.567 C 272.502 174.032, 268.893 171.796, 248.764 158.144 C 242.859 154.140, 233.859 148.681, 228.764 146.014 C 216.356 139.518, 201.865 134.791, 200.606 136.828 M 368.500 160.471 C 365.200 161.193, 356.425 163.578, 349 165.772 C 341.575 167.966, 331.297 170.334, 326.159 171.035 C 319.841 171.897, 316.639 172.777, 316.264 173.755 C 315.322 176.210, 318.121 176.969, 328.175 176.985 C 336.606 176.998, 340.398 176.340, 357.675 171.867 C 375.760 167.184, 378.509 166.728, 389 166.672 C 401.031 166.608, 405.301 167.678, 425.701 175.867 C 430.397 177.752, 431.053 177.804, 432.451 176.406 C 433.303 175.554, 434 174.286, 434 173.588 C 434 170.903, 415.900 163.003, 404.030 160.506 C 395.320 158.674, 376.801 158.656, 368.500 160.471 M 197 191.390 C 197 191.588, 201.894 194.492, 207.876 197.842 C 213.858 201.191, 226.571 208.834, 236.126 214.825 C 258.428 228.808, 266.704 233.274, 276.175 236.437 C 292.448 241.870, 304.668 241.863, 321.198 236.410 C 328.996 233.838, 343.836 225.625, 347.500 221.855 L 349.500 219.797 345.500 221.752 C 330.716 228.976, 316.883 232.335, 302 232.314 C 283.010 232.288, 268.929 227.801, 242.884 213.477 C 222.019 202.002, 197 189.958, 197 191.390 M 165.299 236.061 C 153.510 237.595, 131.546 245.136, 123.491 250.414 C 120.637 252.284, 120.489 252.920, 122.324 255.429 C 123.597 257.169, 123.940 257.172, 131.074 255.490 C 140.630 253.238, 157.736 253.240, 168.500 255.496 C 184.181 258.781, 198.651 265.896, 216.433 279.066 C 221.120 282.538, 224.816 285.517, 224.646 285.687 C 224.476 285.857, 218.299 283.349, 210.919 280.113 C 192.420 272.003, 181.447 268.246, 168.124 265.462 C 152.647 262.227, 142.434 261.554, 130.500 262.984 C 118.665 264.401, 102.495 269.268, 101.565 271.692 C 100.223 275.188, 103.259 276.271, 113.851 276.074 C 119.361 275.972, 126.711 276.379, 130.185 276.978 C 149.336 280.283, 172.710 290.947, 202.500 309.973 C 236.161 331.471, 249.919 336.879, 273.141 337.742 C 289.946 338.367, 298.557 336.744, 311.500 330.512 C 323.273 324.843, 330.916 318.926, 349.107 301.397 C 376.235 275.256, 394.793 260.512, 412.805 250.790 C 421.245 246.235, 422.082 245.523, 421.805 243.134 C 420.859 234.972, 389.959 237.162, 366.756 247.036 C 362.799 248.720, 352.971 254.127, 344.916 259.051 C 326.440 270.347, 317.667 274.399, 307.010 276.558 C 285.703 280.875, 262.840 274.505, 233.539 256.089 C 213.453 243.464, 203.190 238.915, 189.346 236.501 C 180.087 234.886, 175.031 234.794, 165.299 236.061 M 368.868 254.357 C 364.671 256.189, 353.646 262.210, 344.368 267.736 C 323.221 280.333, 321.131 281.369, 310.322 284.620 C 302.811 286.878, 299.063 287.345, 285.097 287.757 C 267.761 288.270, 256.663 287.251, 243.848 283.970 C 236.577 282.108, 236.526 282.109, 239 284.021 C 242.789 286.951, 254.649 292.584, 262.500 295.183 C 268.568 297.192, 271.496 297.500, 284.500 297.500 C 297.434 297.500, 300.526 297.178, 306.946 295.162 C 317.355 291.893, 329.799 285.431, 343.122 276.375 C 349.380 272.122, 360.119 264.865, 366.987 260.250 C 373.855 255.635, 379.667 251.666, 379.904 251.430 C 381.409 249.924, 375.323 251.538, 368.868 254.357 M 205.500 288.484 C 209.517 291.793, 231.740 305.523, 240.500 310.108 C 269.843 325.465, 297.827 324.254, 322.411 306.564 C 328.107 302.466, 338.156 293, 336.810 293 C 336.477 293, 333.235 294.804, 329.605 297.009 C 314.731 306.045, 299.127 310.288, 280.500 310.361 C 262.247 310.433, 253.570 308.082, 222 294.511 C 203.558 286.584, 202.902 286.344, 205.500 288.484 M 386.039 306.128 C 370.905 308.386, 359.275 313.812, 338.506 328.308 C 322.221 339.674, 311.882 345.191, 300.954 348.348 C 290.773 351.289, 274.288 353.422, 268.005 352.611 C 265.527 352.291, 262.893 352.414, 262.152 352.885 C 259.673 354.456, 261.359 357.443, 265.514 358.842 C 270.703 360.590, 291.178 359.777, 299.500 357.493 C 309.182 354.835, 322.429 347.985, 338.863 337.139 C 347.313 331.563, 354.866 327, 355.648 327 C 359.309 327, 351.512 334.921, 337.964 344.967 C 326.622 353.376, 317.094 358.810, 306.500 362.909 C 298.540 365.990, 296.402 366.397, 288 366.434 C 279.556 366.472, 277.289 366.058, 267.609 362.719 C 254.425 358.170, 237.097 349.979, 218.750 339.623 C 191.840 324.433, 182.351 321.041, 166.697 321.015 C 147.616 320.983, 128.982 328.391, 106.648 344.890 C 100.994 349.067, 100.267 350.294, 101.909 352.887 C 102.914 354.474, 103.934 354.315, 116.375 350.625 C 138.795 343.975, 158.916 347.023, 187.072 361.335 C 196.282 366.016, 201.220 367.922, 205.537 368.461 C 214.458 369.576, 222.865 372.480, 241 380.710 C 271.092 394.366, 292.764 400.021, 314.849 399.980 C 337.475 399.938, 348.388 396.791, 381.740 380.687 C 395.622 373.984, 406.839 368.050, 406.666 367.500 C 405.851 364.903, 400.245 363.522, 390.500 363.518 C 380.698 363.514, 380.084 363.656, 359.500 370.717 C 343.715 376.131, 335.704 378.322, 327.240 379.540 C 321.047 380.431, 315.522 381.007, 314.962 380.821 C 314.401 380.634, 319.468 377.664, 326.221 374.221 C 339.679 367.359, 349.908 360.176, 368.423 344.584 C 385.260 330.406, 393.682 324.627, 406.750 318.283 C 420.911 311.409, 421.288 309.543, 409 307.155 C 400.083 305.422, 392.924 305.102, 386.039 306.128 M 179 331.472 C 179 331.731, 182.713 333.731, 187.250 335.917 C 191.787 338.103, 201.350 343.348, 208.500 347.573 C 215.650 351.797, 224.425 356.606, 228 358.259 C 235.391 361.676, 245.145 365.188, 245.700 364.633 C 245.905 364.428, 242.344 362.327, 237.786 359.963 C 233.229 357.599, 222.474 351.477, 213.888 346.357 C 198.628 337.260, 185.256 331, 181.083 331 C 179.938 331, 179 331.212, 179 331.472 M 174.287 384.920 C 170.319 385.895, 162.894 388.730, 157.787 391.219 C 148.045 395.968, 132.020 406.747, 132.007 408.559 C 132.003 409.141, 132.595 410.431, 133.322 411.426 C 134.587 413.155, 134.977 413.122, 142.327 410.654 C 152.625 407.195, 165.427 405.594, 176.257 406.412 C 191.152 407.536, 202.412 411.044, 222.910 420.947 C 245.323 431.774, 252.939 433.904, 272.114 434.703 C 288.182 435.372, 298.812 434.084, 311.196 429.966 C 320.501 426.872, 335.917 419.512, 339.967 416.230 L 342.433 414.231 337.586 411.157 C 332.836 408.144, 332.666 408.114, 329.119 409.663 C 315.390 415.658, 311.229 416.461, 294 416.437 C 278.150 416.414, 277.126 416.288, 268 413.235 C 262.775 411.487, 254.675 408.077, 250 405.659 C 245.325 403.240, 235.425 398.132, 228 394.307 C 220.342 390.363, 211.009 386.412, 206.432 385.177 C 196.525 382.504, 184.509 382.408, 174.287 384.920 M 150.500 415.500 C 142.809 416.950, 127.852 421.199, 122.357 423.495 C 119.604 424.645, 118.924 425.444, 119.178 427.229 C 119.490 429.428, 119.850 429.502, 130.500 429.576 C 137.603 429.626, 143.803 430.272, 148 431.401 C 157.099 433.849, 171.940 441.124, 175.419 444.842 L 178.338 447.962 176.504 453.357 C 174.888 458.111, 174.826 459.305, 175.979 463.423 C 177.421 468.577, 182.307 476, 184.256 476 C 184.940 476, 186.794 474.378, 188.375 472.397 C 194.397 464.849, 199.607 464.765, 213.963 471.980 C 223.594 476.820, 233.907 480, 239.974 480 C 245.725 480, 260 477.593, 265.442 475.706 C 270.037 474.113, 272.063 471.663, 270.270 469.870 C 269.618 469.218, 263.778 468.078, 257.292 467.336 C 242.644 465.661, 237.270 464.122, 224 457.806 C 208.051 450.214, 203.575 448.851, 195.500 449.126 C 187.752 449.390, 184.466 448.656, 183.629 446.475 C 182.744 444.168, 187.138 439.979, 191.500 438.972 C 201.777 436.598, 209.227 438.533, 232 449.491 C 241.625 454.122, 252.231 458.809, 255.568 459.905 C 264.118 462.714, 275.733 463.972, 283.783 462.961 C 295.594 461.478, 311 455.807, 311 452.943 C 311 452.424, 310.149 451.149, 309.109 450.109 C 307.454 448.454, 306.609 448.344, 302.359 449.226 C 299.686 449.780, 292.100 450.255, 285.500 450.281 C 265.971 450.356, 251.770 446.184, 217.697 430.359 C 185.330 415.327, 169.723 411.876, 150.500 415.500"
     stroke="none"
     fill="black"
     fill-rule="evenodd"
     id="path1" /><path
     style="fill:#0f70b7;fill-opacity:1;stroke:#ffffff;stroke-width:1.13386;stroke-linejoin:bevel;stroke-dasharray:1.13386, 3.40157"
     d="m 308.70588,75.568637 c -6.01691,-1.563092 -16.23097,-5.399744 -26.90092,-10.104646 -14.04389,-6.192642 -21.6895,-8.689423 -30.51084,-9.963751 -3.96863,-0.573307 -7.56863,-1.329968 -8,-1.681469 -0.43137,-0.351502 -0.78432,-1.559237 -0.78432,-2.683856 0,-1.90421 0.19696,-2.094357 2.86531,-2.766256 4.79498,-1.20739 14.21016,-1.569769 18.57535,-0.714943 2.18411,0.427709 9.50167,2.72553 16.26124,5.106269 14.9197,5.254758 16.25889,5.576727 16.25889,3.908986 0,-1.999234 -4.19225,-8.468401 -7.50384,-11.579349 -4.05645,-3.810695 -7.49228,-4.963103 -16.02557,-5.375129 -12.11435,-0.584933 -19.89364,1.505791 -36.83784,9.900359 -5.46507,2.707529 -10.3152,4.777457 -10.77807,4.599839 -0.46286,-0.177617 -1.17279,-1.049902 -1.57763,-1.938411 -0.61476,-1.349263 -0.55122,-1.82456 0.3856,-2.884335 1.77389,-2.00669 9.02937,-6.510908 16.35297,-10.151956 16.1096,-8.009152 29.28422,-10.710236 44.67019,-9.158366 9.46808,0.954977 11.43391,1.88508 16.14569,7.639124 7.15309,8.73537 12.69941,13.219622 21.6724,17.522351 5.69541,2.731062 12.09504,4.333302 17.41767,4.360756 1.89804,0.0098 4.5098,0.192813 5.80392,0.406717 1.96824,0.325331 2.35294,0.638705 2.35294,1.916697 0,2.344595 -1.03054,3.772686 -3.93311,5.450402 -4.88024,2.82083 -8.92073,3.648181 -19.87178,4.069053 l -10.3147,0.396414 -0.50944,1.972318 c -0.64899,2.512591 -1.36462,2.753214 -5.21411,1.753182 z"
     id="path2" /><path
     style="fill:#0f70b7;fill-opacity:1;stroke:#ffffff;stroke-width:1.13386;stroke-linejoin:bevel;stroke-dasharray:1.13386, 3.40157"
     d="m 328.31373,54.486412 c -0.94902,-0.346612 -1.72308,-0.818438 -1.72013,-1.048503 0.003,-0.230066 1.68497,-0.941853 3.73781,-1.581749 3.51442,-1.095484 7.93892,-3.432774 16.61207,-8.775498 5.47133,-3.37038 9.52092,-2.925648 6.79907,0.746683 -1.71966,2.320169 -11.11008,8.62133 -15.09942,10.132012 -3.55112,1.34474 -7.53414,1.547972 -10.3294,0.527055 z"
     id="path3" /><path
     style="fill:#0f70b7;fill-opacity:1;stroke:#ffffff;stroke-width:1.13386;stroke-linejoin:bevel;stroke-dasharray:1.13386, 3.40157"
     d="m 298.98039,147.51957 c -6.83404,-1.51633 -12.10535,-3.5362 -20.53173,-7.86737 -6.58945,-3.38698 -9.92099,-5.41389 -28.09572,-17.09344 -20.89742,-13.42922 -34.60925,-19.26055 -53.01961,-22.54801 -7.67591,-1.37066 -25.91975,-1.546674 -32.77239,-0.316187 -5.5422,0.995177 -6.75702,0.544647 -6.75702,-2.505919 0,-1.513617 0.46714,-2.02884 2.98039,-3.287156 10.0773,-5.045429 26.06864,-8.459987 42.19608,-9.009937 17.59398,-0.599958 30.74904,1.30813 52.54083,7.620835 12.51282,3.624745 27.38308,8.576394 30.32611,10.098294 0.97714,0.5053 2.2634,0.91873 2.85833,0.91873 1.87276,0 -1.34734,-2.85861 -8.86252,-7.867644 -15.88445,-10.587324 -30.77537,-16.569472 -47.68628,-19.157073 -7.93639,-1.214376 -21.34787,-0.956374 -30.60186,0.5887 -9.42367,1.573403 -11.95863,1.658778 -12.97269,0.436911 -1.26881,-1.528819 0.22082,-3.133232 4.9202,-5.299314 7.33253,-3.379781 17.87058,-5.721186 25.74957,-5.721186 27.93637,0 51.68396,7.771843 85.45644,27.967223 23.41632,14.002573 38.95556,19.212673 57.3307,19.222243 7.94776,0.004 12.75269,-0.79143 21.33889,-3.53316 6.04924,-1.93163 7.91778,-2.00688 9.39165,-0.37827 1.03737,1.14628 1.04614,1.35327 0.11747,2.7706 -1.37883,2.10436 -10.71378,8.14905 -17.61271,11.4048 -8.87642,4.18898 -14.5701,5.4165 -26.7255,5.76184 -17.03996,0.48411 -22.53624,-0.88992 -52.07884,-13.01936 -19.15056,-7.86274 -22.37408,-9.01017 -22.90397,-8.15279 -0.97171,1.57226 20.13056,15.25244 31.95264,20.71426 8.99352,4.15502 17.74707,6.09147 33.30468,7.36763 5.12195,0.42014 5.66488,0.58822 5.83871,1.80748 0.26663,1.87008 -2.53348,3.7152 -8.95008,5.89766 -11.85807,4.03324 -26.98355,5.34254 -36.73177,3.17961 z"
     id="path4" /><path
     style="fill:#0f70b7;fill-opacity:1;stroke:#ffffff;stroke-width:1.13386;stroke-linejoin:bevel;stroke-dasharray:1.13386, 3.40157"
     d="m 284.49844,257.24832 c -4.81591,-0.81508 -12.51075,-3.08378 -18.45922,-5.4424 -10.41714,-4.1305 -20.61526,-10.01512 -48.94118,-28.24054 -19.6489,-12.64246 -26.66537,-16.80593 -37.33991,-22.15691 -20.22248,-10.13722 -36.98418,-15.52494 -54.82749,-17.62322 -6.02301,-0.70827 -22.72354,-0.49523 -34.751832,0.44332 -4.380321,0.34178 -5.377775,0.2387 -6.368818,-0.65818 -2.203118,-1.99379 -2.01254,-3.33959 0.796452,-5.62425 6.889032,-5.60311 41.433058,-27.03412 59.145348,-36.69359 9.41719,-5.1357 18.57595,-8.7591 28.3036,-11.19749 6.15487,-1.54281 7.81995,-1.69523 18.37598,-1.68209 23.90932,0.0298 33.41443,3.71812 67.76471,26.29527 20.62923,13.55881 27.38452,17.24773 37.77836,20.62992 11.05398,3.59701 16.85989,4.46777 29.67262,4.45023 13.01838,-0.0178 18.01255,-0.73857 34.5098,-4.98045 10.59952,-2.72541 20.60239,-3.7312 32.91353,-3.30946 10.3462,0.35443 16.37192,1.70132 23.3219,5.21301 3.22928,1.6317 4.01363,2.87751 3.00188,4.768 -0.792,1.47986 -2.13798,1.42593 -10.74669,-0.43059 -8.1394,-1.75532 -8.07721,-0.68731 0.30183,5.18404 6.05821,4.2451 7.16558,6.01568 5.3252,8.51447 -0.73588,0.99914 -1.42366,0.98372 -11.13726,-0.24961 -8.33611,-1.05843 -12.61423,-1.25899 -21.96078,-1.02953 -14.75991,0.36235 -15.49904,0.57508 -38.58823,11.10607 -19.81335,9.03688 -26.47202,10.91304 -38.90197,10.9611 -9.67251,0.0374 -15.42606,-0.90367 -24.97433,-4.08488 -9.93738,-3.31086 -19.7453,-8.66859 -41.79414,-22.83071 -25.01348,-16.06632 -36.90113,-21.57489 -55.46982,-25.70391 -23.0846,-5.1332 -44.21065,-2.97752 -67.24673,6.86179 -11.70788,5.00073 -12.63652,6.52077 -2.34782,3.84301 8.55148,-2.22563 14.49356,-2.91407 25.15188,-2.91407 16.26636,0 33.83312,2.88239 49.66136,8.14854 12.09962,4.02562 24.59995,9.52262 51.7647,22.76346 39.82029,19.40948 45.19072,21.16643 64.69931,21.16643 13.35399,0 20.0175,-1.79038 44.63816,-11.99353 20.06772,-8.31634 25.43959,-9.67721 41.01776,-10.39111 l 8.55131,-0.39187 1.10477,1.6861 c 1.06933,1.632 1.06197,1.73165 -0.22919,3.10603 -0.73368,0.78097 -4.51421,3.17758 -8.40117,5.32579 -8.0433,4.4453 -15.38749,9.58499 -29.36242,20.54869 -12.56248,9.8556 -20.66471,15.13262 -30.23224,19.6904 -8.88217,4.23128 -14.05758,5.94008 -20.85329,6.88528 -5.43127,0.75542 -20.48975,0.7781 -24.86593,0.0375 z m 31.1094,-19.0587 c 7.62933,-2.01363 23.13936,-9.53862 29.36456,-14.24679 2.34658,-1.77473 4.15507,-3.33823 4.01887,-3.47443 -0.1362,-0.1362 -3.04436,0.98846 -6.46259,2.49925 -13.75886,6.08118 -23.53433,8.43755 -37.27378,8.98486 -20.16892,0.80341 -33.9837,-3.31316 -62.30879,-18.56697 -21.75735,-11.7169 -43.71654,-22.33135 -45.1859,-21.84156 -0.36344,0.12115 3.69773,2.71653 9.02479,5.76751 5.32708,3.05098 18.43853,10.9269 29.13657,17.50204 35.51372,21.82718 45.30783,25.69172 64,25.25302 7.67975,-0.18023 10.56644,-0.52564 15.68627,-1.87693 z m 12.93742,-42.09321 c 7.15718,-1.25651 23.27185,-6.83211 29.95953,-10.36587 2.13761,-1.1295 2.17906,-1.20622 0.66578,-1.23222 -0.88757,-0.0153 -5.82875,0.70439 -10.9804,1.59921 -6.93369,1.20435 -12.46322,1.71033 -21.28821,1.94799 -11.06257,0.29791 -12.48934,0.20478 -19.80132,-1.2925 -17.20308,-3.52269 -27.96052,-8.5699 -51.82202,-24.31404 -18.74383,-12.36742 -26.73745,-17.00915 -36.12232,-20.97548 -8.59357,-3.63191 -17.08484,-5.90359 -18.13638,-4.85205 -1.24423,1.24423 0.32835,2.44525 8.92621,6.81719 10.96209,5.57413 19.74649,10.94549 40.37991,24.69093 9.67754,6.44692 20.06142,13.20292 23.07528,15.01333 18.75583,11.26652 38.44499,15.89515 55.14394,12.96351 z"
     id="path5" /><path
     style="fill:#0f70b7;fill-opacity:1;stroke:#ffffff;stroke-width:1.13386;stroke-linejoin:bevel;stroke-dasharray:1.13386, 3.40157"
     d="m 423.82106,174.94101 c -3.61139,-1.39013 -9.95439,-3.68078 -14.09557,-5.09034 -7.45806,-2.53855 -7.63209,-2.56525 -18.36499,-2.81808 -12.66124,-0.29826 -13.99418,-0.10703 -34.26505,4.91588 -17.54286,4.34694 -23.47597,5.24729 -32.05039,4.86361 -6.58618,-0.29471 -9.32228,-1.13258 -8.73092,-2.67366 0.45258,-1.17938 2.9438,-1.9301 10.58782,-3.19058 6.6506,-1.09667 16.69321,-3.54337 31.81003,-7.74995 5.07199,-1.41139 11.14258,-2.84389 13.4902,-3.18333 5.71334,-0.82607 22.12484,-0.80603 28.223,0.0345 9.45962,1.30381 29.29972,8.8714 32.40913,12.36178 0.9167,1.02901 1.00864,1.54922 0.45621,2.58143 -1.40348,2.62243 -2.53958,2.61628 -9.46947,-0.0513 z"
     id="path6" /><path
     style="fill:#71bb70;fill-opacity:1;stroke:#ffffff;stroke-width:1.13386;stroke-linejoin:bevel;stroke-dasharray:1.13386, 3.40157"
     d="m 261.64706,336.64486 c -15.20592,-2.12884 -29.02561,-8.08792 -52.39216,-22.59161 -21.78057,-13.51928 -27.4927,-16.80405 -39.84314,-22.91189 -14.0289,-6.93792 -21.6976,-9.94738 -32.31372,-12.681 -6.33556,-1.63139 -8.7846,-1.91419 -20.07843,-2.3185 -13.749,-0.49221 -15.91413,-0.96508 -15.56749,-3.4 0.2916,-2.04826 5.79839,-4.51095 15.59526,-6.97433 15.3884,-3.86934 27.74576,-4.31293 43.82293,-1.57309 15.54939,2.6499 28.099,6.6473 49.65869,15.81769 11.53988,4.90847 13.78473,5.76354 13.78473,5.25066 0,-0.56286 -11.46353,-8.93727 -18.50981,-13.5219 -7.79746,-5.07339 -16.71514,-9.75885 -23.22686,-12.20368 -16.18773,-6.07768 -35.66188,-7.43127 -53.51846,-3.71991 l -5.27088,1.09551 -1.18798,-1.46709 c -0.65338,-0.8069 -1.18798,-1.94086 -1.18798,-2.51991 0,-2.04581 8.65701,-6.44056 21.22056,-10.77265 20.27198,-6.99008 33.70494,-8.33834 49.33567,-4.95182 12.84713,2.78344 20.12237,6.03164 39.2477,17.52305 15.22816,9.1498 18.9426,11.1911 26.0754,14.32995 21.1444,9.30476 39.88959,11.20274 56.74813,5.74584 6.30996,-2.04246 16.87311,-7.31957 28.23319,-14.10466 20.32734,-12.14101 29.35292,-16.22893 42.93648,-19.44703 9.63597,-2.28288 16.01378,-2.99664 24.07435,-2.69425 8.07132,0.3028 10.92866,1.24371 12.19113,4.01452 0.6175,1.35529 0.50776,1.76961 -0.81152,3.06385 -0.83908,0.82315 -4.63148,3.24831 -8.42756,5.38924 -18.65701,10.52227 -35.27623,23.77208 -63.75401,50.8284 -5.65686,5.37449 -12.67159,11.818 -15.58829,14.31892 -12.44635,10.67204 -26.55434,17.95389 -39.56648,20.42225 -6.26589,1.18862 -23.36502,1.21746 -31.67945,0.0535 z m 30.90173,-16.96611 c 9.86676,-1.87169 18.65238,-5.55963 27.6318,-11.59899 5.52392,-3.71527 16.44686,-13.37254 16.44686,-14.54111 0,-0.34842 -1.7647,0.38622 -3.92157,1.63252 -19.49698,11.26598 -32.08684,14.78961 -52.8429,14.78961 -6.89012,0 -12.86497,-0.35006 -16.40824,-0.96136 -7.98689,-1.37793 -21.24035,-6.03306 -40.90019,-14.36572 -9.42244,-3.99364 -17.43951,-7.26115 -17.81571,-7.26115 -1.87409,0 18.24929,12.98075 32.55652,21.00086 10.12877,5.67781 23.70472,10.60959 32.50856,11.80947 4.89389,0.66699 18.11613,0.37393 22.74487,-0.50413 z m 9.73257,-23.18772 c 10.65785,-2.25848 24.88741,-9.45359 44.186,-22.34243 27.46173,-18.34071 33.81039,-22.84842 32.4528,-23.04232 -3.35801,-0.47962 -16.70451,6.03613 -37.90055,18.50301 -7.07451,4.16102 -14.83922,8.5572 -17.2549,9.7693 -5.82006,2.92027 -17.29059,6.50708 -23.7024,7.41169 -7.00384,0.98814 -34.50542,1.00465 -41.23878,0.0248 -4.85207,-0.70611 -17.317,-3.30019 -20.39216,-4.24381 -1.21139,-0.37172 -1.21612,-0.34162 -0.13658,0.86817 2.6124,2.92759 22.63834,11.95053 29.58009,13.32769 4.62045,0.91664 29.72877,0.71518 34.40648,-0.27607 z"
     id="path7" /><path
     style="fill:#71bb70;fill-opacity:1;stroke:#ffffff;stroke-width:1.13386;stroke-linejoin:bevel;stroke-dasharray:1.13386, 3.40157"
     d="m 297.66741,398.7354 c -16.25557,-2.21885 -31.49782,-7.13875 -58.29486,-18.81643 -17.71311,-7.71907 -22.26524,-9.32492 -31.8662,-11.2414 -7.8516,-1.56729 -11.6735,-2.98568 -22.09459,-8.19981 -25.77976,-12.89875 -45.67507,-16.10155 -66.09474,-10.64013 -17.18499,4.59629 -16.16397,4.41113 -17.11941,3.10449 -0.47535,-0.65008 -0.86428,-1.66871 -0.86428,-2.26362 0,-1.5396 4.79724,-5.58373 13.35564,-11.25894 18.91443,-12.54248 35.07897,-18.16466 52.22587,-18.16466 15.64841,0 23.29261,2.79281 54.50149,19.91208 19.72202,10.8183 33.8949,17.36965 48.31774,22.33465 l 7.59926,2.61602 10.35294,-0.002 c 9.77458,-0.002 10.63337,-0.10158 15.37255,-1.78411 14.38017,-5.10529 32.75288,-16.41198 46.505,-28.61948 4.49514,-3.99025 7.6169,-7.91693 6.87994,-8.65389 -0.61082,-0.61082 -4.5988,1.65008 -17.93396,10.16729 -30.09855,19.22404 -40.49537,22.82945 -64.0499,22.21126 -7.10105,-0.18637 -8.76484,-0.42264 -10.61676,-1.50768 -2.32839,-1.36419 -3.24869,-3.81972 -1.78039,-4.7504 0.46157,-0.29257 4.33239,-0.53627 8.60182,-0.54155 11.81879,-0.0146 27.31568,-2.68627 36.51983,-6.29595 7.23399,-2.83703 17.78479,-8.88523 31.95285,-18.31684 22.50134,-14.97902 31.30315,-19.12028 45.7847,-21.54177 7.64047,-1.27757 15.78684,-0.9642 24.52773,0.94352 11.4379,2.49636 11.12929,3.69844 -2.7651,10.77031 -14.00076,7.12602 -20.08659,11.32317 -38.99831,26.89555 -20.20699,16.63895 -26.61865,21.11595 -41.87544,29.23993 -4.92145,2.62059 -9.36153,5.16211 -9.86686,5.64782 -0.80117,0.77009 -0.74371,0.88312 0.44902,0.88312 3.1873,0 16.00107,-2.06301 21.80309,-3.51029 3.45098,-0.86082 13.47451,-3.93509 22.27451,-6.8317 8.8,-2.89661 17.22031,-5.58276 18.7118,-5.96922 4.48561,-1.16226 19.40468,-0.87928 23.39114,0.44368 1.98668,0.65931 3.45974,1.5381 3.57015,2.12987 0.32072,1.7191 -38.40629,20.74686 -53.82995,26.44831 -7.36509,2.72254 -14.9753,4.61813 -21.94433,5.466 -7.18482,0.87414 -25.30492,0.70569 -32.70199,-0.304 z m -52.97878,-35.0201 c -0.68071,-0.45854 -3.77883,-2.19548 -6.88471,-3.85985 -3.10588,-1.66437 -11.93584,-6.66658 -19.62212,-11.11601 -22.20071,-12.85152 -35.63978,-18.98711 -38.31237,-17.49146 -0.67791,0.37938 1.30066,1.66282 7.16566,4.64817 4.45619,2.26824 13.60805,7.27229 20.33746,11.1201 6.72941,3.84781 14.77647,8.27929 17.88235,9.84774 6.38775,3.22575 17.56915,7.63621 19.43373,7.66555 1.2319,0.0194 1.2319,0.0156 0,-0.81424 z"
     id="path8" /><path
     style="fill:#71bb70;fill-opacity:1;stroke:#ffffff;stroke-width:1.13386;stroke-linejoin:bevel;stroke-dasharray:1.13386, 3.40157"
     d="m 264.47059,434.1713 c -13.40919,-1.2716 -20.4524,-3.50322 -40.52222,-12.83938 -26.52997,-12.34131 -35.93861,-14.96777 -53.59543,-14.96137 -10.85132,0.004 -17.85764,1.04805 -27.48029,4.09524 -6.9165,2.19024 -8.8201,2.13078 -10.14698,-0.31693 -0.93619,-1.727 -0.90434,-1.82198 1.23511,-3.6836 3.00291,-2.61294 14.96995,-10.42928 20.70589,-13.52415 6.94435,-3.74688 15.70807,-7.03282 22.52558,-8.44591 4.99095,-1.0345 7.58295,-1.19329 15.12148,-0.92635 13.96225,0.49439 18.30433,2.05637 49.56862,17.83132 28.16876,14.21305 33.53233,15.66554 55.52941,15.03766 14.10264,-0.40254 18.8936,-1.28215 27.92157,-5.12637 2.93334,-1.24905 6.05132,-2.29935 6.92887,-2.334 0.88546,-0.035 3.48625,1.1311 5.84403,2.62017 l 4.24851,2.68318 -3.02051,2.19366 c -8.18424,5.94385 -29.76637,14.72544 -41.29501,16.8026 -6.72913,1.21241 -25.06313,1.7008 -33.56863,0.89423 z"
     id="path9" /><path
     style="fill:#71bb70;fill-opacity:1;stroke:#ffffff;stroke-width:1.13386;stroke-linejoin:bevel;stroke-dasharray:1.13386, 3.40157"
     d="m 233.41176,479.04284 c -5.0928,-1.12438 -11.96119,-3.64523 -19.13725,-7.02379 -8.26191,-3.8898 -12.23665,-5.19552 -15.81566,-5.19552 -3.88166,0 -5.61859,0.92833 -9.8884,5.285 -1.88625,1.92462 -3.93154,3.49931 -4.54508,3.49931 -1.38154,0 -4.53396,-4.19799 -6.59644,-8.78431 -2.31016,-5.13707 -2.45786,-8.82757 -0.57119,-14.27186 l 1.5755,-4.54637 -1.58978,-1.88935 c -3.52776,-4.19251 -19.54681,-12.33934 -29.12738,-14.81336 -2.26226,-0.58419 -9.25881,-1.34749 -15.95137,-1.74024 l -11.92157,-0.6996 -0.1898,-1.94779 c -0.17431,-1.78885 0.0563,-2.05364 2.82629,-3.24526 4.35053,-1.87155 16.24937,-5.38939 24.97135,-7.38267 6.12462,-1.39969 9.1098,-1.72786 16,-1.75891 15.68375,-0.0707 26.10362,3.15115 60.54902,18.72178 20.97749,9.48262 34.45714,14.21316 45.80392,16.07442 6.25207,1.02556 25.98235,1.04511 32.1806,0.0319 5.06207,-0.82749 6.34101,-0.489 8.05896,2.13292 0.95229,1.45338 0.94733,1.64722 -0.071,2.77246 -1.46332,1.61696 -8.74052,4.59237 -16.37925,6.69695 -5.59277,1.54089 -7.26567,1.7157 -16.57361,1.73181 -15.44385,0.0267 -18.36472,-0.84164 -45.80392,-13.61765 -19.81653,-9.22681 -24.38249,-10.74957 -32.31373,-10.77671 -5.61656,-0.0192 -6.63638,0.15965 -9.72549,1.70587 -4.05379,2.02909 -5.93067,4.2729 -5.38679,6.43989 0.5155,2.05393 3.55684,2.80531 11.37261,2.80965 9.26751,0.005 11.54987,0.73145 33.32509,10.60477 8.88213,4.02734 13.79403,5.36005 26.85112,7.28529 13.89941,2.04944 15.54026,2.50495 15.28883,4.24424 -0.44757,3.09599 -7.77388,5.65491 -21.96625,7.67232 -7.68644,1.09261 -10.24312,1.09006 -15.24932,-0.0152 z"
     id="path10" /></svg>
